<svg width="79" height="157" viewBox="0 0 79 157" fill="none" xmlns="http://www.w3.org/2000/svg">
<path d="M64.9916 48.3328C61.9631 48.3328 59.7198 47.5476 58.2616 45.9773C56.8034 44.407 56.0744 41.715 56.0744 37.9014V29.3207C55.4014 29.2085 54.504 28.9281 53.3824 28.4794C49.9052 27.4699 46.9889 26.853 44.6334 26.6287V71.3829C53.2702 74.7479 59.888 77.7764 64.4868 80.4683C69.1978 83.1603 72.731 86.3571 75.0865 90.0585C77.5542 93.76 78.788 98.5271 78.788 104.36C78.788 112.996 75.8156 120.231 69.8708 126.064C64.0382 131.784 55.6257 135.261 44.6334 136.495V153.152C44.6334 154.274 44.1287 155.115 43.1192 155.676C42.1097 156.349 40.8759 156.685 39.4177 156.685C38.0717 156.685 36.894 156.349 35.8845 155.676C34.875 155.115 34.3703 154.274 34.3703 153.152V137C29.8836 136.888 25.0605 136.327 19.9008 135.318C14.7412 134.196 10.4228 132.906 6.94568 131.448C4.47802 130.326 2.85162 129.317 2.06646 128.419C1.28129 127.41 0.888713 125.727 0.888713 123.372V113.277C0.888713 107.893 3.07595 105.201 7.45042 105.201C10.4789 105.201 12.7222 106.042 14.1804 107.725C15.7507 109.295 16.5359 111.987 16.5359 115.801V124.886C22.2563 127.129 28.2011 128.307 34.3703 128.419V82.3191C26.1821 78.9541 19.7887 75.9817 15.1899 73.4019C10.7032 70.8221 7.11392 67.5693 4.42194 63.6435C1.72996 59.6055 0.383967 54.4458 0.383967 48.1646C0.383967 39.4156 3.35636 32.2931 9.30116 26.7969C15.246 21.3008 23.6023 18.3284 34.3703 17.8797V3.74682C34.3703 2.62517 34.875 1.78392 35.8845 1.22309C36.894 0.550099 38.0717 0.213602 39.4177 0.213602C40.8759 0.213602 42.1097 0.550099 43.1192 1.22309C44.1287 1.78392 44.6334 2.62517 44.6334 3.74682V18.048C48.3349 18.3845 51.756 18.9453 54.8966 19.7305C58.0373 20.4035 61.5144 21.3569 65.3281 22.5907C67.7957 23.488 69.4782 24.4414 70.3755 25.4509C71.2729 26.4604 71.7215 28.1429 71.7215 30.4984V40.2568C71.7215 45.6408 69.4782 48.3328 64.9916 48.3328ZM17.7136 47.1551C17.7136 52.2025 18.8914 56.1283 21.2468 58.9325C23.7145 61.7366 28.089 64.5408 34.3703 67.3449V26.6287C28.8741 27.526 24.724 29.9937 21.9198 34.0316C19.1157 38.0696 17.7136 42.4441 17.7136 47.1551ZM61.4583 106.21C61.4583 101.724 60.1684 98.0784 57.5886 95.2743C55.0088 92.3579 50.6904 89.4977 44.6334 86.6936V127.242C50.1296 125.671 54.2797 122.979 57.0839 119.166C60.0002 115.24 61.4583 110.921 61.4583 106.21Z" fill="#ffffff"/>
</svg>
