<svg width="39" height="48" viewBox="0 0 39 48" fill="none" xmlns="http://www.w3.org/2000/svg">
<path d="M28.3395 2.54868V1.7371C28.3395 0.865826 27.5138 0.241009 26.6835 0.505034C23.2975 1.58175 15.5193 4.28684 10.9836 7.7137C7.98931 9.97602 4.77422 13.7874 2.60134 16.5905C1.0443 18.5991 1.3166 21.4208 3.12636 23.205L9.01997 29.0156C10.789 30.7597 13.3909 31.356 15.7429 30.5564L19.2795 29.3539C19.7428 29.1964 19.8771 28.6056 19.5275 28.2632L12.2413 21.1288C12.2413 21.1288 13.6731 15.9628 15.9305 13.5828C17.2946 12.1446 19.465 11.1915 21.6119 10.5635C25.2946 9.48629 28.3395 6.38573 28.3395 2.54868Z" fill="#F2F7FD"/>
<path d="M22.8788 17.0374C21.8307 17.3871 20.8071 17.7248 20.0068 17.9819C19.4436 18.1628 19.1952 19.1667 19.6221 19.5762L26.6604 26.3272C26.6604 26.3272 24.7646 31.8267 22.1328 34.2086C20.8535 35.3664 18.9794 36.1683 17.1026 36.7208C13.4291 37.8021 10.3945 40.8915 10.3945 44.7209V46.0383C10.3945 46.9144 11.2293 47.5398 12.0619 47.2674C15.374 46.1839 22.8414 43.5222 27.2473 40.2454C30.4243 37.8825 33.8271 33.8481 36.0972 30.9166C37.6699 28.8858 37.3744 26.0304 35.5199 24.2532L29.5414 18.5238C27.7714 16.8275 25.2044 16.2616 22.8788 17.0374Z" fill="#F2F7FD"/>
<path d="M34.1737 3.38081V2.07626H34.8348C34.8879 2.07626 34.9456 2.09158 35.0081 2.12222C35.0705 2.15168 35.1236 2.19764 35.1672 2.2601C35.212 2.32138 35.2343 2.39916 35.2343 2.49343C35.2343 2.58889 35.2114 2.6702 35.1654 2.73737C35.1194 2.80337 35.0635 2.85345 34.9975 2.88763C34.9327 2.9218 34.8714 2.93889 34.8136 2.93889H34.3364V2.72677H34.7253C34.7641 2.72677 34.806 2.70732 34.8508 2.66843C34.8967 2.62955 34.9197 2.57121 34.9197 2.49343C34.9197 2.4133 34.8967 2.35909 34.8508 2.33081C34.806 2.30252 34.7665 2.28838 34.7323 2.28838H34.4601V3.38081H34.1737ZM34.9621 2.76566L35.2874 3.38081H34.9727L34.6545 2.76566H34.9621ZM34.6687 4.15859C34.4731 4.15859 34.2898 4.12205 34.1189 4.04899C33.9481 3.97593 33.7978 3.87458 33.6682 3.74495C33.5386 3.61532 33.4372 3.46507 33.3641 3.29419C33.2911 3.12332 33.2545 2.94007 33.2545 2.74444C33.2545 2.54882 33.2911 2.36557 33.3641 2.1947C33.4372 2.02382 33.5386 1.87357 33.6682 1.74394C33.7978 1.61431 33.9481 1.51296 34.1189 1.4399C34.2898 1.36683 34.4731 1.3303 34.6687 1.3303C34.8643 1.3303 35.0476 1.36683 35.2184 1.4399C35.3893 1.51296 35.5396 1.61431 35.6692 1.74394C35.7988 1.87357 35.9002 2.02382 35.9732 2.1947C36.0463 2.36557 36.0828 2.54882 36.0828 2.74444C36.0828 2.94007 36.0463 3.12332 35.9732 3.29419C35.9002 3.46507 35.7988 3.61532 35.6692 3.74495C35.5396 3.87458 35.3893 3.97593 35.2184 4.04899C35.0476 4.12205 34.8643 4.15859 34.6687 4.15859ZM34.6687 3.81919C34.8667 3.81919 35.047 3.77088 35.2096 3.67424C35.3722 3.57761 35.5019 3.44798 35.5985 3.28535C35.6951 3.12273 35.7434 2.94242 35.7434 2.74444C35.7434 2.54646 35.6951 2.36616 35.5985 2.20353C35.5019 2.04091 35.3722 1.91128 35.2096 1.81465C35.047 1.71801 34.8667 1.6697 34.6687 1.6697C34.4707 1.6697 34.2904 1.71801 34.1278 1.81465C33.9652 1.91128 33.8355 2.04091 33.7389 2.20353C33.6423 2.36616 33.5939 2.54646 33.5939 2.74444C33.5939 2.94242 33.6423 3.12273 33.7389 3.28535C33.8355 3.44798 33.9652 3.57761 34.1278 3.67424C34.2904 3.77088 34.4707 3.81919 34.6687 3.81919Z" fill="#F2F7FD"/>
</svg>
