<svg width="39" height="48" viewBox="0 0 39 48" fill="none" xmlns="http://www.w3.org/2000/svg">
<path d="M28.3395 2.54868V1.7371C28.3395 0.865826 27.5138 0.241009 26.6835 0.505034C23.2975 1.58175 15.5193 4.28684 10.9836 7.7137C7.98931 9.97602 4.77422 13.7874 2.60134 16.5905C1.0443 18.5991 1.3166 21.4208 3.12636 23.205L9.01997 29.0156C10.789 30.7597 13.3909 31.356 15.7429 30.5564L19.2795 29.3539C19.7428 29.1964 19.8771 28.6056 19.5275 28.2632L12.2413 21.1288C12.2413 21.1288 13.6731 15.9628 15.9305 13.5828C17.2946 12.1446 19.465 11.1915 21.6119 10.5635C25.2946 9.48629 28.3395 6.38573 28.3395 2.54868Z" fill="black"/>
<path d="M22.8788 17.0374C21.8307 17.3871 20.8071 17.7248 20.0068 17.9819C19.4436 18.1628 19.1952 19.1667 19.6221 19.5762L26.6604 26.3272C26.6604 26.3272 24.7646 31.8267 22.1328 34.2086C20.8535 35.3664 18.9794 36.1683 17.1026 36.7208C13.4291 37.8021 10.3945 40.8915 10.3945 44.7209V46.0383C10.3945 46.9144 11.2293 47.5398 12.0619 47.2674C15.374 46.1839 22.8414 43.5222 27.2473 40.2454C30.4243 37.8825 33.8271 33.8481 36.0972 30.9166C37.6699 28.8858 37.3744 26.0304 35.5199 24.2532L29.5414 18.5238C27.7714 16.8275 25.2044 16.2616 22.8788 17.0374Z" fill="black"/>
<path d="M34.3475 6.76162V4.15252H35.6697C35.7758 4.15252 35.8912 4.18316 36.0162 4.24444C36.1411 4.30337 36.2471 4.39529 36.3343 4.5202C36.4239 4.64276 36.4687 4.79832 36.4687 4.98687C36.4687 5.17778 36.4227 5.3404 36.3308 5.47475C36.2389 5.60673 36.1269 5.7069 35.9949 5.77525C35.8653 5.8436 35.7428 5.87778 35.6273 5.87778H34.6727V5.45353H35.4505C35.5283 5.45353 35.612 5.41465 35.7015 5.33687C35.7934 5.25909 35.8394 5.14242 35.8394 4.98687C35.8394 4.8266 35.7934 4.71818 35.7015 4.66162C35.612 4.60505 35.533 4.57677 35.4646 4.57677H34.9202V6.76162H34.3475ZM35.9242 5.53131L36.5747 6.76162H35.9455L35.3091 5.53131H35.9242ZM35.3374 8.31717C34.9461 8.31717 34.5796 8.24411 34.2379 8.09798C33.8961 7.95185 33.5956 7.74916 33.3364 7.4899C33.0771 7.23064 32.8744 6.93013 32.7283 6.58838C32.5822 6.24663 32.5091 5.88013 32.5091 5.48889C32.5091 5.09764 32.5822 4.73114 32.7283 4.38939C32.8744 4.04764 33.0771 3.74714 33.3364 3.48788C33.5956 3.22862 33.8961 3.02593 34.2379 2.8798C34.5796 2.73367 34.9461 2.6606 35.3374 2.6606C35.7286 2.6606 36.0951 2.73367 36.4369 2.8798C36.7786 3.02593 37.0791 3.22862 37.3384 3.48788C37.5976 3.74714 37.8003 4.04764 37.9465 4.38939C38.0926 4.73114 38.1657 5.09764 38.1657 5.48889C38.1657 5.88013 38.0926 6.24663 37.9465 6.58838C37.8003 6.93013 37.5976 7.23064 37.3384 7.4899C37.0791 7.74916 36.7786 7.95185 36.4369 8.09798C36.0951 8.24411 35.7286 8.31717 35.3374 8.31717ZM35.3374 7.63838C35.7333 7.63838 36.0939 7.54175 36.4192 7.34848C36.7444 7.15522 37.0037 6.89596 37.197 6.57071C37.3902 6.24545 37.4869 5.88485 37.4869 5.48889C37.4869 5.09293 37.3902 4.73232 37.197 4.40707C37.0037 4.08182 36.7444 3.82256 36.4192 3.62929C36.0939 3.43603 35.7333 3.33939 35.3374 3.33939C34.9414 3.33939 34.5808 3.43603 34.2556 3.62929C33.9303 3.82256 33.671 4.08182 33.4778 4.40707C33.2845 4.73232 33.1879 5.09293 33.1879 5.48889C33.1879 5.88485 33.2845 6.24545 33.4778 6.57071C33.671 6.89596 33.9303 7.15522 34.2556 7.34848C34.5808 7.54175 34.9414 7.63838 35.3374 7.63838Z" fill="black"/>
</svg>
